<?xml version="1.0" encoding="UTF-8"?>
<svg id="Capa_1" xmlns="http://www.w3.org/2000/svg" version="1.1" viewBox="0 0 800 800">
  <!-- Generator: Adobe Illustrator 29.5.1, SVG Export Plug-In . SVG Version: 2.1.0 Build 141)  -->
  <defs>
    <style>
      .st0 {
        fill: #e297ec;
      }
    </style>
  </defs>
  <path class="st0" d="M735.4,113.6c-41.9-41.9-97.3-64.8-156.5-64.8s-114.8,23.1-156.7,65l-21.9,21.9-22.2-22.2c-41.9-41.9-97.7-65.1-156.9-65.1s-114.6,23.1-156.4,64.8C22.9,155-.2,210.6,0,269.8,0,329,23.2,384.5,65.1,426.4l318.5,318.5c4.4,4.4,10.3,6.8,16.1,6.8s11.7-2.2,16.1-6.6l319.2-318c41.9-41.9,65-97.5,65-156.7.2-59.2-22.7-114.8-64.6-156.7Z"/>
</svg>